<svg xmlns="http://www.w3.org/2000/svg" xmlns:xlink="http://www.w3.org/1999/xlink" xmlns:lucid="lucid" width="1270" height="420"><g transform="translate(-270 760)" lucid:page-tab-id="0_0"><path d="M0-1258.83h1870.87V64H0z" fill="#fff"/><path d="M451-442.5c0 .54-.45 1-1 1s-1-.46-1-1c0-.57.45-1 1-1s1 .43 1 1zm0-8.03c0 .55-.45 1-1 1s-1-.45-1-1 .45-1 1-1 1 .45 1 1zm0-8c0 .54-.45 1-1 1s-1-.46-1-1c0-.57.45-1 1-1s1 .43 1 1zm0-8.03c0 .55-.45 1-1 1s-1-.45-1-1 .45-1 1-1 1 .45 1 1zm0-8c0 .54-.45 1-1 1s-1-.46-1-1c0-.57.45-1 1-1s1 .43 1 1zm0-8.03c0 .56-.45 1-1 1s-1-.44-1-1c0-.54.45-1 1-1s1 .46 1 1zm0-8c0 .55-.45 1-1 1s-1-.45-1-1c0-.56.45-1 1-1s1 .44 1 1zm0-8.02c0 .55-.45 1-1 1s-1-.45-1-1 .45-1 1-1 1 .45 1 1zm0-8c0 .54-.45 1-1 1s-1-.46-1-1c0-.57.45-1 1-1s1 .43 1 1zm0-8.03c0 .55-.45 1-1 1s-1-.45-1-1 .45-1 1-1 1 .45 1 1zm0-8.02c0 .56-.45 1-1 1s-1-.44-1-1c0-.55.45-1 1-1s1 .45 1 1zm0-8c0 .54-.45 1-1 1s-1-.46-1-1c0-.56.45-1 1-1s1 .44 1 1zm0-8.03c0 .56-.45 1-1 1s-1-.44-1-1c0-.55.45-1 1-1s1 .45 1 1zm0-8c0 .54-.45 1-1 1s-1-.46-1-1c0-.56.45-1 1-1s1 .44 1 1zm0-8.03c0 .56-.45 1-1 1s-1-.44-1-1c0-.55.45-1 1-1s1 .45 1 1zm0-8c0 .54-.45 1-1 1s-1-.46-1-1c0-.56.45-1 1-1s1 .44 1 1zm0-8.03c0 .56-.45 1-1 1s-1-.44-1-1c0-.55.45-1 1-1s1 .45 1 1zm0-8c0 .54-.45 1-1 1s-1-.46-1-1c0-.56.45-1 1-1s1 .44 1 1zm0-8.03c0 .57-.45 1-1 1s-1-.43-1-1c0-.54.45-1 1-1s1 .46 1 1zm0-8c0 .55-.45 1-1 1s-1-.45-1-1 .45-1 1-1 1 .45 1 1zm0-8.02c0 .56-.45 1-1 1s-1-.44-1-1c0-.55.45-1 1-1s1 .45 1 1zm0-8c0 .54-.45 1-1 1s-1-.46-1-1c0-.56.45-1 1-1s1 .44 1 1zm0-8.03c0 .55-.45 1-1 1s-1-.45-1-1 .45-1 1-1 1 .45 1 1zm0-8c0 .54-.45 1-1 1s-1-.46-1-1c0-.56.45-1 1-1s1 .44 1 1zm0-8.03c0 .55-.45 1-1 1s-1-.45-1-1 .45-1 1-1 1 .45 1 1zm0-8c0 .54-.45 1-1 1s-1-.46-1-1c0-.57.45-1 1-1s1 .43 1 1zm0-8.03c0 .54-.45 1-1 1s-1-.46-1-1c0-.56.45-1 1-1s1 .44 1 1zm0-8.02c0 .55-.45 1-1 1s-1-.45-1-1c0-.56.45-1 1-1s1 .44 1 1zm0-8.02c0 .55-.45 1-1 1s-1-.45-1-1 .45-1 1-1 1 .45 1 1zm0-8c0 .54-.45 1-1 1s-1-.46-1-1c0-.57.45-1 1-1s1 .43 1 1zm0-8.03c0 .55-.45 1-1 1s-1-.45-1-1 .45-1 1-1 1 .45 1 1zm0-8c0 .54-.45 1-1 1s-1-.46-1-1c0-.57.45-1 1-1s1 .43 1 1z" fill="#4397ff"/><path d="M451-441.38l-1-.13-1 .12v-1.16h2z" fill="#4397ff"/><path d="M450-698.97V-700" stroke="#4397ff" stroke-width="2" fill="none"/><path d="M671-442.5c0 .54-.45 1-1 1s-1-.46-1-1c0-.57.45-1 1-1s1 .43 1 1zm0-8.03c0 .55-.45 1-1 1s-1-.45-1-1 .45-1 1-1 1 .45 1 1zm0-8c0 .54-.45 1-1 1s-1-.46-1-1c0-.57.45-1 1-1s1 .43 1 1zm0-8.03c0 .55-.45 1-1 1s-1-.45-1-1 .45-1 1-1 1 .45 1 1zm0-8c0 .54-.45 1-1 1s-1-.46-1-1c0-.57.45-1 1-1s1 .43 1 1zm0-8.03c0 .56-.45 1-1 1s-1-.44-1-1c0-.54.45-1 1-1s1 .46 1 1zm0-8c0 .55-.45 1-1 1s-1-.45-1-1c0-.56.45-1 1-1s1 .44 1 1zm0-8.02c0 .55-.45 1-1 1s-1-.45-1-1 .45-1 1-1 1 .45 1 1zm0-8c0 .54-.45 1-1 1s-1-.46-1-1c0-.57.45-1 1-1s1 .43 1 1zm0-8.03c0 .55-.45 1-1 1s-1-.45-1-1 .45-1 1-1 1 .45 1 1zm0-8.02c0 .56-.45 1-1 1s-1-.44-1-1c0-.55.45-1 1-1s1 .45 1 1zm0-8c0 .54-.45 1-1 1s-1-.46-1-1c0-.56.45-1 1-1s1 .44 1 1zm0-8.03c0 .56-.45 1-1 1s-1-.44-1-1c0-.55.45-1 1-1s1 .45 1 1zm0-8c0 .54-.45 1-1 1s-1-.46-1-1c0-.56.45-1 1-1s1 .44 1 1zm0-8.03c0 .56-.45 1-1 1s-1-.44-1-1c0-.55.45-1 1-1s1 .45 1 1zm0-8c0 .54-.45 1-1 1s-1-.46-1-1c0-.56.45-1 1-1s1 .44 1 1zm0-8.03c0 .56-.45 1-1 1s-1-.44-1-1c0-.55.45-1 1-1s1 .45 1 1zm0-8c0 .54-.45 1-1 1s-1-.46-1-1c0-.56.45-1 1-1s1 .44 1 1zm0-8.03c0 .57-.45 1-1 1s-1-.43-1-1c0-.54.45-1 1-1s1 .46 1 1zm0-8c0 .55-.45 1-1 1s-1-.45-1-1 .45-1 1-1 1 .45 1 1zm0-8.02c0 .55-.45 1-1 1s-1-.45-1-1 .45-1 1-1 1 .45 1 1zm0-8c0 .54-.45 1-1 1s-1-.46-1-1c0-.56.45-1 1-1s1 .44 1 1zm0-8.03c0 .55-.45 1-1 1s-1-.45-1-1 .45-1 1-1 1 .45 1 1zm0-8c0 .54-.45 1-1 1s-1-.46-1-1c0-.57.45-1 1-1s1 .43 1 1zm0-8.03c0 .55-.45 1-1 1s-1-.45-1-1 .45-1 1-1 1 .45 1 1zm0-8c0 .54-.45 1-1 1s-1-.46-1-1c0-.57.45-1 1-1s1 .43 1 1zm0-8.03c0 .54-.45 1-1 1s-1-.46-1-1c0-.56.45-1 1-1s1 .44 1 1zm0-8.02c0 .55-.45 1-1 1s-1-.45-1-1c0-.56.45-1 1-1s1 .44 1 1zm0-8.02c0 .55-.45 1-1 1s-1-.45-1-1 .45-1 1-1 1 .45 1 1zm0-8c0 .54-.45 1-1 1s-1-.46-1-1c0-.57.45-1 1-1s1 .43 1 1zm0-8.03c0 .55-.45 1-1 1s-1-.45-1-1 .45-1 1-1 1 .45 1 1zm0-8c0 .54-.45 1-1 1s-1-.46-1-1c0-.57.45-1 1-1s1 .43 1 1zm0-8.03c0 .55-.45 1-1 1s-1-.45-1-1 .45-1 1-1 1 .45 1 1z" fill="#4397ff"/><path d="M671-441.38l-1-.13-1 .12v-1.16h2z" fill="#4397ff"/><path d="M670-698.97V-700" stroke="#4397ff" stroke-width="2" fill="none"/><path d="M881-621c0 .55-.45 1-1 1s-1-.45-1-1 .45-1 1-1 1 .45 1 1zm0-7.8c0 .55-.45 1-1 1s-1-.45-1-1 .45-1 1-1 1 .45 1 1zm0-7.8c0 .55-.45 1-1 1s-1-.45-1-1 .45-1 1-1 1 .45 1 1zm0-7.8c0 .55-.45 1-1 1s-1-.45-1-1 .45-1 1-1 1 .45 1 1zm0-7.8c0 .55-.45 1-1 1s-1-.45-1-1 .45-1 1-1 1 .45 1 1zm0-7.8c0 .55-.45 1-1 1s-1-.45-1-1 .45-1 1-1 1 .45 1 1zm0-7.8c0 .55-.45 1-1 1s-1-.45-1-1 .45-1 1-1 1 .45 1 1zm0-7.8c0 .55-.45 1-1 1s-1-.45-1-1 .45-1 1-1 1 .45 1 1zm0-7.8c0 .55-.45 1-1 1s-1-.45-1-1 .45-1 1-1 1 .45 1 1zm0-7.8c0 .55-.45 1-1 1s-1-.45-1-1 .45-1 1-1 1 .45 1 1zm0-7.8c0 .55-.45 1-1 1s-1-.45-1-1 .45-1 1-1 1 .45 1 1z" fill="#4397ff"/><path d="M881-620h-2v-1.03h2z" fill="#4397ff"/><path d="M880-698.97V-700" stroke="#4397ff" stroke-width="2" fill="none"/><path d="M1091-621c0 .55-.45 1-1 1s-1-.45-1-1 .45-1 1-1 1 .45 1 1zm0-7.8c0 .55-.45 1-1 1s-1-.45-1-1 .45-1 1-1 1 .45 1 1zm0-7.8c0 .55-.45 1-1 1s-1-.45-1-1 .45-1 1-1 1 .45 1 1zm0-7.8c0 .55-.45 1-1 1s-1-.45-1-1 .45-1 1-1 1 .45 1 1zm0-7.8c0 .55-.45 1-1 1s-1-.45-1-1 .45-1 1-1 1 .45 1 1zm0-7.8c0 .55-.45 1-1 1s-1-.45-1-1 .45-1 1-1 1 .45 1 1zm0-7.8c0 .55-.45 1-1 1s-1-.45-1-1 .45-1 1-1 1 .45 1 1zm0-7.8c0 .55-.45 1-1 1s-1-.45-1-1 .45-1 1-1 1 .45 1 1zm0-7.8c0 .55-.45 1-1 1s-1-.45-1-1 .45-1 1-1 1 .45 1 1zm0-7.8c0 .55-.45 1-1 1s-1-.45-1-1 .45-1 1-1 1 .45 1 1zm0-7.8c0 .55-.45 1-1 1s-1-.45-1-1 .45-1 1-1 1 .45 1 1z" fill="#4397ff"/><path d="M1091-620h-2v-1.03h2z" fill="#4397ff"/><path d="M1090-698.97V-700" stroke="#4397ff" stroke-width="2" fill="none"/><path d="M1301-442.5c0 .54-.45 1-1 1s-1-.46-1-1c0-.57.45-1 1-1s1 .43 1 1zm0-8.03c0 .55-.45 1-1 1s-1-.45-1-1 .45-1 1-1 1 .45 1 1zm0-8c0 .54-.45 1-1 1s-1-.46-1-1c0-.57.45-1 1-1s1 .43 1 1zm0-8.03c0 .55-.45 1-1 1s-1-.45-1-1 .45-1 1-1 1 .45 1 1zm0-8c0 .54-.45 1-1 1s-1-.46-1-1c0-.57.45-1 1-1s1 .43 1 1zm0-8.03c0 .56-.45 1-1 1s-1-.44-1-1c0-.54.45-1 1-1s1 .46 1 1zm0-8c0 .55-.45 1-1 1s-1-.45-1-1c0-.56.45-1 1-1s1 .44 1 1zm0-8.02c0 .55-.45 1-1 1s-1-.45-1-1 .45-1 1-1 1 .45 1 1zm0-8c0 .54-.45 1-1 1s-1-.46-1-1c0-.57.45-1 1-1s1 .43 1 1zm0-8.03c0 .55-.45 1-1 1s-1-.45-1-1 .45-1 1-1 1 .45 1 1zm0-8.02c0 .56-.45 1-1 1s-1-.44-1-1c0-.55.45-1 1-1s1 .45 1 1zm0-8c0 .54-.45 1-1 1s-1-.46-1-1c0-.56.45-1 1-1s1 .44 1 1zm0-8.03c0 .56-.45 1-1 1s-1-.44-1-1c0-.55.45-1 1-1s1 .45 1 1zm0-8c0 .54-.45 1-1 1s-1-.46-1-1c0-.56.45-1 1-1s1 .44 1 1zm0-8.03c0 .56-.45 1-1 1s-1-.44-1-1c0-.55.45-1 1-1s1 .45 1 1zm0-8c0 .54-.45 1-1 1s-1-.46-1-1c0-.56.45-1 1-1s1 .44 1 1zm0-8.03c0 .56-.45 1-1 1s-1-.44-1-1c0-.55.45-1 1-1s1 .45 1 1zm0-8c0 .54-.45 1-1 1s-1-.46-1-1c0-.56.45-1 1-1s1 .44 1 1zm0-8.03c0 .57-.45 1-1 1s-1-.43-1-1c0-.54.45-1 1-1s1 .46 1 1zm0-8c0 .55-.45 1-1 1s-1-.45-1-1 .45-1 1-1 1 .45 1 1zm0-8.02c0 .55-.45 1-1 1s-1-.45-1-1 .45-1 1-1 1 .45 1 1zm0-8c0 .54-.45 1-1 1s-1-.46-1-1c0-.56.45-1 1-1s1 .44 1 1zm0-8.03c0 .55-.45 1-1 1s-1-.45-1-1 .45-1 1-1 1 .45 1 1zm0-8c0 .54-.45 1-1 1s-1-.46-1-1c0-.57.45-1 1-1s1 .43 1 1zm0-8.03c0 .55-.45 1-1 1s-1-.45-1-1 .45-1 1-1 1 .45 1 1zm0-8c0 .54-.45 1-1 1s-1-.46-1-1c0-.57.45-1 1-1s1 .43 1 1zm0-8.03c0 .54-.45 1-1 1s-1-.46-1-1c0-.56.45-1 1-1s1 .44 1 1zm0-8.02c0 .55-.45 1-1 1s-1-.45-1-1c0-.56.45-1 1-1s1 .44 1 1zm0-8.02c0 .55-.45 1-1 1s-1-.45-1-1 .45-1 1-1 1 .45 1 1zm0-8c0 .54-.45 1-1 1s-1-.46-1-1c0-.57.45-1 1-1s1 .43 1 1zm0-8.03c0 .55-.45 1-1 1s-1-.45-1-1 .45-1 1-1 1 .45 1 1zm0-8c0 .54-.45 1-1 1s-1-.46-1-1c0-.57.45-1 1-1s1 .43 1 1zm0-8.03c0 .55-.45 1-1 1s-1-.45-1-1 .45-1 1-1 1 .45 1 1z" fill="#4397ff"/><path d="M1301-441.38l-1-.13-1 .12v-1.16h2z" fill="#4397ff"/><path d="M1300-698.97V-700" stroke="#4397ff" stroke-width="2" fill="none"/><path d="M1201-442.5c0 .54-.45 1-1 1s-1-.46-1-1c0-.57.45-1 1-1s1 .43 1 1zm0-8.03c0 .55-.45 1-1 1s-1-.45-1-1 .45-1 1-1 1 .45 1 1zm0-8c0 .54-.45 1-1 1s-1-.46-1-1c0-.57.45-1 1-1s1 .43 1 1zm0-8.03c0 .55-.45 1-1 1s-1-.45-1-1 .45-1 1-1 1 .45 1 1zm0-8c0 .54-.45 1-1 1s-1-.46-1-1c0-.57.45-1 1-1s1 .43 1 1zm0-8.03c0 .56-.45 1-1 1s-1-.44-1-1c0-.54.45-1 1-1s1 .46 1 1zm0-8c0 .55-.45 1-1 1s-1-.45-1-1c0-.56.45-1 1-1s1 .44 1 1zm0-8.02c0 .55-.45 1-1 1s-1-.45-1-1 .45-1 1-1 1 .45 1 1zm0-8c0 .54-.45 1-1 1s-1-.46-1-1c0-.57.45-1 1-1s1 .43 1 1zm0-8.03c0 .55-.45 1-1 1s-1-.45-1-1 .45-1 1-1 1 .45 1 1zm0-8.02c0 .56-.45 1-1 1s-1-.44-1-1c0-.55.45-1 1-1s1 .45 1 1zm0-8c0 .54-.45 1-1 1s-1-.46-1-1c0-.56.45-1 1-1s1 .44 1 1zm0-8.03c0 .56-.45 1-1 1s-1-.44-1-1c0-.55.45-1 1-1s1 .45 1 1zm0-8c0 .54-.45 1-1 1s-1-.46-1-1c0-.56.45-1 1-1s1 .44 1 1zm0-8.03c0 .56-.45 1-1 1s-1-.44-1-1c0-.55.45-1 1-1s1 .45 1 1zm0-8c0 .54-.45 1-1 1s-1-.46-1-1c0-.56.45-1 1-1s1 .44 1 1zm0-8.03c0 .56-.45 1-1 1s-1-.44-1-1c0-.55.45-1 1-1s1 .45 1 1zm0-8c0 .54-.45 1-1 1s-1-.46-1-1c0-.56.45-1 1-1s1 .44 1 1zm0-8.03c0 .57-.45 1-1 1s-1-.43-1-1c0-.54.45-1 1-1s1 .46 1 1zm0-8c0 .55-.45 1-1 1s-1-.45-1-1 .45-1 1-1 1 .45 1 1zm0-8.02c0 .55-.45 1-1 1s-1-.45-1-1 .45-1 1-1 1 .45 1 1zm0-8c0 .54-.45 1-1 1s-1-.46-1-1c0-.56.45-1 1-1s1 .44 1 1zm0-8.03c0 .55-.45 1-1 1s-1-.45-1-1 .45-1 1-1 1 .45 1 1zm0-8c0 .54-.45 1-1 1s-1-.46-1-1c0-.57.45-1 1-1s1 .43 1 1zm0-8.03c0 .55-.45 1-1 1s-1-.45-1-1 .45-1 1-1 1 .45 1 1zm0-8c0 .54-.45 1-1 1s-1-.46-1-1c0-.57.45-1 1-1s1 .43 1 1zm0-8.03c0 .54-.45 1-1 1s-1-.46-1-1c0-.56.45-1 1-1s1 .44 1 1zm0-8.02c0 .55-.45 1-1 1s-1-.45-1-1c0-.56.45-1 1-1s1 .44 1 1zm0-8.02c0 .55-.45 1-1 1s-1-.45-1-1 .45-1 1-1 1 .45 1 1zm0-8c0 .54-.45 1-1 1s-1-.46-1-1c0-.57.45-1 1-1s1 .43 1 1zm0-8.03c0 .55-.45 1-1 1s-1-.45-1-1 .45-1 1-1 1 .45 1 1zm0-8c0 .54-.45 1-1 1s-1-.46-1-1c0-.57.45-1 1-1s1 .43 1 1zm0-8.03c0 .55-.45 1-1 1s-1-.45-1-1 .45-1 1-1 1 .45 1 1z" fill="#fcc438"/><path d="M1201-441.38l-1-.13-1 .12v-1.16h2z" fill="#fcc438"/><path d="M1200-698.97V-700" stroke="#fcc438" stroke-width="2" fill="none"/><path d="M670.43-732c0-4.42 3.58-8 8-8h514c4.42 0 8 3.58 8 8v16.8c0 4.4-3.58 8-8 8h-514c-4.42 0-8-3.6-8-8z" stroke="#000" stroke-opacity="0" stroke-width="2" fill="#fcc438"/><use xlink:href="#a" transform="matrix(1,0,0,1,675.4330708661416,-735) translate(219.5288888888889 17.635555555555555)"/><use xlink:href="#b" transform="matrix(1,0,0,1,675.4330708661416,-735) translate(262.9244444444445 17.635555555555555)"/><path d="M790-612c0-4.42 3.58-8 8-8h164c4.42 0 8 3.58 8 8v16.8c0 4.4-3.58 8-8 8H798c-4.42 0-8-3.6-8-8z" stroke="#000" stroke-opacity="0" stroke-width="2" fill="#4397ff"/><use xlink:href="#a" transform="matrix(1,0,0,1,795,-615) translate(44.528888888888886 17.635555555555555)"/><use xlink:href="#b" transform="matrix(1,0,0,1,795,-615) translate(87.92444444444445 17.635555555555555)"/><path d="M1212.5-430h249" stroke="#4397ff" stroke-width="2" fill="none"/><path d="M1212.54-429h-1.18l.16-.98-.14-1.02h1.16z" fill="#4397ff"/><path d="M1476.76-430l-14.26 4.64v-9.28z" stroke="#4397ff" stroke-width="2" fill="#4397ff"/><path d="M682.5-430h505" stroke="#4397ff" stroke-width="2" fill="none"/><path d="M682.54-429h-1.18l.16-.98-.14-1.02h1.16zM1188.48-429.98l.16.98h-1.18v-2h1.16z" fill="#4397ff"/><path d="M462.5-430h195" stroke="#4397ff" stroke-width="2" fill="none"/><path d="M462.54-429h-1.18l.16-.98-.14-1.02h1.16zM658.48-429.98l.16.98h-1.18v-2h1.16z" fill="#4397ff"/><path d="M322.5-430h115" stroke="#4397ff" stroke-width="2" fill="none"/><path d="M322.54-429h-1.18l.16-.98-.14-1.02h1.16zM438.48-429.98l.16.98h-1.18v-2h1.16z" fill="#4397ff"/><path d="M360-554c0-3.3 2.7-6 6-6h168c3.3 0 6 2.7 6 6v68c0 3.3-2.7 6-6 6H366c-3.3 0-6-2.7-6-6z" stroke="#99d2f2" stroke-width="3" fill="#e4f1f8"/><use xlink:href="#c" transform="matrix(1,0,0,1,372,-548) translate(32.38333333333337 33.24361111111111)"/><path d="M580-554c0-3.3 2.7-6 6-6h168c3.3 0 6 2.7 6 6v68c0 3.3-2.7 6-6 6H586c-3.3 0-6-2.7-6-6z" stroke="#fcc438" stroke-width="3" fill="#ffeca9"/><use xlink:href="#d" transform="matrix(1,0,0,1,592,-548) translate(34.3977777777778 33.24361111111111)"/><use xlink:href="#e" transform="matrix(1,0,0,1,592,-548) translate(60.67111111111112 33.24361111111111)"/><path d="M320-430c0 5.52-4.48 10-10 10s-10-4.48-10-10 4.48-10 10-10 10 4.48 10 10zM460-430c0 5.52-4.48 10-10 10s-10-4.48-10-10 4.48-10 10-10 10 4.48 10 10z" stroke="#4397ff" stroke-width="3" fill="#c1e4f7"/><path d="M1420-414c0-3.3 2.7-6 6-6h88c3.3 0 6 2.7 6 6v48c0 3.3-2.7 6-6 6h-88c-3.3 0-6-2.7-6-6z" stroke="#000" stroke-opacity="0" stroke-width="3" fill="#fff" fill-opacity="0"/><use xlink:href="#f" transform="matrix(1,0,0,1,1425,-415) translate(9.340000000000003 32.339999999999996)"/><use xlink:href="#g" transform="matrix(1,0,0,1,1425,-415) translate(57.099999999999994 32.339999999999996)"/><path d="M290-414c0-3.3 2.7-6 6-6h28c3.3 0 6 2.7 6 6v48c0 3.3-2.7 6-6 6h-28c-3.3 0-6-2.7-6-6z" stroke="#000" stroke-opacity="0" stroke-width="3" fill="#fff" fill-opacity="0"/><use xlink:href="#h" transform="matrix(1,0,0,1,295,-415) translate(10.077777777777778 30.135555555555555)"/><path d="M430-414c0-3.3 2.7-6 6-6h28c3.3 0 6 2.7 6 6v48c0 3.3-2.7 6-6 6h-28c-3.3 0-6-2.7-6-6z" stroke="#000" stroke-opacity="0" stroke-width="3" fill="#fff" fill-opacity="0"/><use xlink:href="#i" transform="matrix(1,0,0,1,435,-415) translate(4.655555555555555 30.135555555555555)"/><path d="M680-430c0 5.52-4.48 10-10 10s-10-4.48-10-10 4.48-10 10-10 10 4.48 10 10z" stroke="#4397ff" stroke-width="3" fill="#c1e4f7"/><path d="M650-414c0-3.3 2.7-6 6-6h28c3.3 0 6 2.7 6 6v48c0 3.3-2.7 6-6 6h-28c-3.3 0-6-2.7-6-6z" stroke="#000" stroke-opacity="0" stroke-width="3" fill="#fff" fill-opacity="0"/><use xlink:href="#j" transform="matrix(1,0,0,1,655,-415) translate(4.655555555555555 30.135555555555555)"/><path d="M580-674c0-3.3 2.7-6 6-6h168c3.3 0 6 2.7 6 6v28c0 3.3-2.7 6-6 6H586c-3.3 0-6-2.7-6-6z" stroke="#fcc438" stroke-width="3" fill="#ffeca9"/><use xlink:href="#k" transform="matrix(1,0,0,1,592,-668) translate(42.587777777777795 15.431111111111104)"/><use xlink:href="#l" transform="matrix(1,0,0,1,592,-668) translate(80.55888888888889 15.431111111111104)"/><path d="M580-614c0-3.3 2.7-6 6-6h168c3.3 0 6 2.7 6 6v28c0 3.3-2.7 6-6 6H586c-3.3 0-6-2.7-6-6z" stroke="#fcc438" stroke-width="3" fill="#ffeca9"/><use xlink:href="#m" transform="matrix(1,0,0,1,592,-608) translate(36.10111111111113 15.431111111111104)"/><use xlink:href="#n" transform="matrix(1,0,0,1,592,-608) translate(59.263333333333335 15.431111111111104)"/><path d="M881-442.5c0 .54-.45 1-1 1s-1-.46-1-1c0-.57.45-1 1-1s1 .43 1 1zm0-8c0 .56-.45 1-1 1s-1-.44-1-1c0-.55.45-1 1-1s1 .45 1 1zm0-7.98c0 .55-.45 1-1 1s-1-.45-1-1 .45-1 1-1 1 .45 1 1zm0-7.98c0 .55-.45 1-1 1s-1-.45-1-1 .45-1 1-1 1 .45 1 1zm0-8c0 .57-.45 1-1 1s-1-.43-1-1c0-.54.45-1 1-1s1 .46 1 1zm0-7.97c0 .55-.45 1-1 1s-1-.45-1-1 .45-1 1-1 1 .45 1 1zm0-7.98c0 .54-.45 1-1 1s-1-.46-1-1c0-.56.45-1 1-1s1 .44 1 1zm0-8c0 .56-.45 1-1 1s-1-.44-1-1c0-.55.45-1 1-1s1 .45 1 1zm0-7.98c0 .55-.45 1-1 1s-1-.45-1-1 .45-1 1-1 1 .45 1 1zm0-7.98c0 .55-.45 1-1 1s-1-.45-1-1 .45-1 1-1 1 .45 1 1zm0-7.98c0 .55-.45 1-1 1s-1-.45-1-1c0-.56.45-1 1-1s1 .44 1 1zm0-8c0 .57-.45 1-1 1s-1-.43-1-1c0-.54.45-1 1-1s1 .46 1 1zm0-7.97c0 .54-.45 1-1 1s-1-.46-1-1c0-.56.45-1 1-1s1 .44 1 1zm0-8c0 .56-.45 1-1 1s-1-.44-1-1c0-.55.45-1 1-1s1 .45 1 1zm0-7.98c0 .56-.45 1-1 1s-1-.44-1-1c0-.55.45-1 1-1s1 .45 1 1zm0-7.98c0 .55-.45 1-1 1s-1-.45-1-1 .45-1 1-1 1 .45 1 1zm0-7.98c0 .55-.45 1-1 1s-1-.45-1-1 .45-1 1-1 1 .45 1 1zm0-8c0 .57-.45 1-1 1s-1-.43-1-1c0-.54.45-1 1-1s1 .46 1 1zm0-7.97c0 .54-.45 1-1 1s-1-.46-1-1c0-.56.45-1 1-1s1 .44 1 1z" fill="#4397ff"/><path d="M881-441.38l-1-.13-1 .12v-1.16h2zM881-586.18h-2v-1.03h2z" fill="#4397ff"/><path d="M790-554c0-3.3 2.7-6 6-6h168c3.3 0 6 2.7 6 6v68c0 3.3-2.7 6-6 6H796c-3.3 0-6-2.7-6-6z" stroke="#99d2f2" stroke-width="3" fill="#e4f1f8"/><use xlink:href="#c" transform="matrix(1,0,0,1,802,-548) translate(32.38333333333337 33.24361111111111)"/><path d="M890-430c0 5.52-4.48 10-10 10s-10-4.48-10-10 4.48-10 10-10 10 4.48 10 10z" stroke="#4397ff" stroke-width="3" fill="#c1e4f7"/><path d="M1091-442.5c0 .54-.45 1-1 1s-1-.46-1-1c0-.57.45-1 1-1s1 .43 1 1zm0-8c0 .56-.45 1-1 1s-1-.44-1-1c0-.55.45-1 1-1s1 .45 1 1zm0-7.98c0 .55-.45 1-1 1s-1-.45-1-1 .45-1 1-1 1 .45 1 1zm0-7.98c0 .55-.45 1-1 1s-1-.45-1-1 .45-1 1-1 1 .45 1 1zm0-8c0 .57-.45 1-1 1s-1-.43-1-1c0-.54.45-1 1-1s1 .46 1 1zm0-7.97c0 .55-.45 1-1 1s-1-.45-1-1 .45-1 1-1 1 .45 1 1zm0-7.98c0 .54-.45 1-1 1s-1-.46-1-1c0-.56.45-1 1-1s1 .44 1 1zm0-8c0 .56-.45 1-1 1s-1-.44-1-1c0-.55.45-1 1-1s1 .45 1 1zm0-7.98c0 .55-.45 1-1 1s-1-.45-1-1 .45-1 1-1 1 .45 1 1zm0-7.98c0 .55-.45 1-1 1s-1-.45-1-1 .45-1 1-1 1 .45 1 1zm0-7.98c0 .55-.45 1-1 1s-1-.45-1-1c0-.56.45-1 1-1s1 .44 1 1zm0-8c0 .57-.45 1-1 1s-1-.43-1-1c0-.54.45-1 1-1s1 .46 1 1zm0-7.97c0 .54-.45 1-1 1s-1-.46-1-1c0-.56.45-1 1-1s1 .44 1 1zm0-8c0 .56-.45 1-1 1s-1-.44-1-1c0-.55.45-1 1-1s1 .45 1 1zm0-7.98c0 .56-.45 1-1 1s-1-.44-1-1c0-.55.45-1 1-1s1 .45 1 1zm0-7.98c0 .55-.45 1-1 1s-1-.45-1-1 .45-1 1-1 1 .45 1 1zm0-7.98c0 .55-.45 1-1 1s-1-.45-1-1 .45-1 1-1 1 .45 1 1zm0-8c0 .57-.45 1-1 1s-1-.43-1-1c0-.54.45-1 1-1s1 .46 1 1zm0-7.97c0 .54-.45 1-1 1s-1-.46-1-1c0-.56.45-1 1-1s1 .44 1 1z" fill="#4397ff"/><path d="M1091-441.38l-1-.13-1 .12v-1.16h2zM1091-586.18h-2v-1.03h2z" fill="#4397ff"/><path d="M1000-554c0-3.3 2.7-6 6-6h168c3.3 0 6 2.7 6 6v68c0 3.3-2.7 6-6 6h-168c-3.3 0-6-2.7-6-6z" stroke="#99d2f2" stroke-width="3" fill="#e4f1f8"/><use xlink:href="#c" transform="matrix(1,0,0,1,1012,-548) translate(32.38333333333337 33.24361111111111)"/><path d="M1100-430c0 5.52-4.48 10-10 10s-10-4.48-10-10 4.48-10 10-10 10 4.48 10 10z" stroke="#4397ff" stroke-width="3" fill="#c1e4f7"/><path d="M1210-554c0-3.3 2.7-6 6-6h168c3.3 0 6 2.7 6 6v68c0 3.3-2.7 6-6 6h-168c-3.3 0-6-2.7-6-6z" stroke="#99d2f2" stroke-width="3" fill="#e4f1f8"/><use xlink:href="#c" transform="matrix(1,0,0,1,1222,-548) translate(32.38333333333337 33.24361111111111)"/><path d="M1310-430c0 5.52-4.48 10-10 10s-10-4.48-10-10 4.48-10 10-10 10 4.48 10 10z" stroke="#4397ff" stroke-width="3" fill="#c1e4f7"/><path d="M860-414c0-3.3 2.7-6 6-6h28c3.3 0 6 2.7 6 6v48c0 3.3-2.7 6-6 6h-28c-3.3 0-6-2.7-6-6z" stroke="#000" stroke-opacity="0" stroke-width="3" fill="#fff" fill-opacity="0"/><use xlink:href="#o" transform="matrix(1,0,0,1,865,-415) translate(4.655555555555555 30.135555555555555)"/><path d="M1070-414c0-3.3 2.7-6 6-6h28c3.3 0 6 2.7 6 6v48c0 3.3-2.7 6-6 6h-28c-3.3 0-6-2.7-6-6z" stroke="#000" stroke-opacity="0" stroke-width="3" fill="#fff" fill-opacity="0"/><use xlink:href="#p" transform="matrix(1,0,0,1,1075,-415) translate(4.655555555555555 30.135555555555555)"/><path d="M1280-414c0-3.3 2.7-6 6-6h28c3.3 0 6 2.7 6 6v48c0 3.3-2.7 6-6 6h-28c-3.3 0-6-2.7-6-6z" stroke="#000" stroke-opacity="0" stroke-width="3" fill="#fff" fill-opacity="0"/><use xlink:href="#q" transform="matrix(1,0,0,1,1285,-415) translate(4.655555555555555 30.135555555555555)"/><path d="M1210-430c0 5.52-4.48 10-10 10s-10-4.48-10-10 4.48-10 10-10 10 4.48 10 10z" stroke="#fcc438" stroke-width="3" fill="#ffeca9"/><path d="M1180-414c0-3.3 2.7-6 6-6h28c3.3 0 6 2.7 6 6v48c0 3.3-2.7 6-6 6h-28c-3.3 0-6-2.7-6-6z" stroke="#000" stroke-opacity="0" stroke-width="3" fill="#fff" fill-opacity="0"/><use xlink:href="#r" transform="matrix(1,0,0,1,1185,-415) translate(4.655555555555555 30.135555555555555)"/><path d="M1000-612c0-4.42 3.58-8 8-8h164c4.42 0 8 3.58 8 8v16.8c0 4.4-3.58 8-8 8h-164c-4.42 0-8-3.6-8-8z" stroke="#000" stroke-opacity="0" stroke-width="2" fill="#4397ff"/><g><use xlink:href="#a" transform="matrix(1,0,0,1,1005,-615) translate(44.528888888888886 17.635555555555555)"/><use xlink:href="#b" transform="matrix(1,0,0,1,1005,-615) translate(87.92444444444445 17.635555555555555)"/></g><path d="M300-732c0-4.42 3.58-8 8-8h354.43c4.42 0 8 3.58 8 8v16.8c0 4.4-3.58 8-8 8H308c-4.42 0-8-3.6-8-8z" stroke="#000" stroke-opacity="0" stroke-width="2" fill="#ccc"/><g><use xlink:href="#s" transform="matrix(1,0,0,1,305.00000000000006,-735) translate(128.74 17.635555555555555)"/><use xlink:href="#t" transform="matrix(1,0,0,1,305.00000000000006,-735) translate(158.57111111111112 17.635555555555555)"/></g><path d="M1200.43-732c0-4.42 3.58-8 8-8H1472c4.42 0 8 3.58 8 8v16.8c0 4.4-3.58 8-8 8h-263.57c-4.42 0-8-3.6-8-8z" stroke="#000" stroke-opacity="0" stroke-width="2" fill="#ccc"/><g><use xlink:href="#s" transform="matrix(1,0,0,1,1205.4330708661416,-735) translate(83.24000000000001 17.635555555555555)"/><use xlink:href="#t" transform="matrix(1,0,0,1,1205.4330708661416,-735) translate(113.07111111111112 17.635555555555555)"/></g><defs><path fill="#fff" d="M80-708h149c118 176 232 354 352 528l-3-528h121V0H550C432-176 318-355 198-529l4 529H80v-708" id="u"/><path fill="#fff" d="M295-534c175 0 256 137 237 320H170c10 80 57 129 145 129 69-1 102-19 149-47l54 80c-56 41-119 66-211 66C138 14 46-91 44-260c-2-161 90-274 251-274zm117 226c-3-74-41-132-118-132-79 0-120 59-125 132h243" id="v"/><path fill="#fff" d="M660 0H524c-41-127-77-259-120-384L289 0H154L9-520h132c30 126 55 257 88 381l114-381h130c40 126 75 257 117 381l88-381h127" id="w"/><g id="a"><use transform="matrix(0.017777777777777778,0,0,0.017777777777777778,0,0)" xlink:href="#u"/><use transform="matrix(0.017777777777777778,0,0,0.017777777777777778,13.848888888888888,0)" xlink:href="#v"/><use transform="matrix(0.017777777777777778,0,0,0.017777777777777778,24.142222222222223,0)" xlink:href="#w"/></g><path fill="#fff" d="M362-301V0H231v-303L-18-708h150c57 100 111 203 171 301l167-301h145" id="x"/><path fill="#fff" d="M314-534c172 0 271 101 271 272C585-92 485 14 314 14 144 14 44-93 44-262c0-171 98-272 270-272zm0 100c-102 0-140 71-140 172 0 102 39 177 141 177s142-75 142-177-40-172-143-172" id="y"/><path fill="#fff" d="M380-422c-108-21-177 50-177 149V0H78c-4-180 9-350-9-520h120c6 28 5 55 10 72 34-65 100-96 186-82" id="z"/><path fill="#fff" d="M247-226l-44 41V0H78v-708h125v382l208-194h148L333-307 576 0H422" id="A"/><g id="b"><use transform="matrix(0.017777777777777778,0,0,0.017777777777777778,0,0)" xlink:href="#x"/><use transform="matrix(0.017777777777777778,0,0,0.017777777777777778,9.208888888888886,0)" xlink:href="#y"/><use transform="matrix(0.017777777777777778,0,0,0.017777777777777778,20.40888888888889,0)" xlink:href="#z"/><use transform="matrix(0.017777777777777778,0,0,0.017777777777777778,27.377777777777776,0)" xlink:href="#A"/></g><path fill="#333" d="M266 14c-103 1-166-60-165-163v-271H15v-80l85-15v-123l126-44v167h129v95H226v259c-6 69 55 85 113 68l18 92c-25 10-56 15-91 15" id="B"/><path fill="#333" d="M380-422c-108-21-177 50-177 149V0H78c-4-180 9-350-9-520h120c6 28 5 55 10 72 34-65 100-96 186-82" id="C"/><path fill="#333" d="M206 14C110 14 37-46 38-146c2-168 152-185 331-181 25-144-173-124-258-70l-42-83c50-30 124-54 200-54 156 0 223 66 225 217 2 121-6 199 9 317H388c-5-27-8-47-9-59h-3c-39 49-83 73-170 73zm36-98c87-3 138-59 128-159-104-1-200-4-202 88-1 45 29 73 74 71" id="D"/><path fill="#333" d="M44-261c0-170 96-273 266-273 65 0 123 19 174 56l-47 87c-40-26-82-39-126-39-98-1-141 69-141 169 0 97 44 171 139 170 41 0 84-13 129-40l45 89C436-9 374 14 299 14 127 14 44-98 44-261" id="E"/><path fill="#333" d="M247-226l-44 41V0H78v-708h125v382l208-194h148L333-307 576 0H422" id="F"/><path fill="#333" d="M249 131C150-1 57-141 57-354s93-352 192-485l79 51c-76 124-137 246-137 434S252-44 328 80" id="G"/><path fill="#333" d="M295-534c175 0 256 137 237 320H170c10 80 57 129 145 129 69-1 102-19 149-47l54 80c-56 41-119 66-211 66C138 14 46-91 44-260c-2-161 90-274 251-274zm117 226c-3-74-41-132-118-132-79 0-120 59-125 132h243" id="H"/><path fill="#333" d="M329 0H192L-2-520h136l127 393h3l124-393h131" id="I"/><path fill="#333" d="M330-430c-79 0-127 62-127 141V0H78c-4-180 9-350-9-520h120c5 20 4 44 10 60 33-43 94-75 172-74 122 1 190 74 190 190V0H436v-317c-1-69-32-113-106-113" id="J"/><path fill="#333" d="M136-839c99 133 192 271 192 485 0 212-93 353-192 485L57 80c76-124 137-246 137-434S133-664 57-788" id="K"/><g id="c"><use transform="matrix(0.015555555555555548,0,0,0.015555555555555548,0,0)" xlink:href="#B"/><use transform="matrix(0.015555555555555548,0,0,0.015555555555555548,5.988888888888886,0)" xlink:href="#C"/><use transform="matrix(0.015555555555555548,0,0,0.015555555555555548,11.853333333333328,0)" xlink:href="#D"/><use transform="matrix(0.015555555555555548,0,0,0.015555555555555548,20.704444444444434,0)" xlink:href="#E"/><use transform="matrix(0.015555555555555548,0,0,0.015555555555555548,28.653333333333318,0)" xlink:href="#F"/><use transform="matrix(0.015555555555555548,0,0,0.015555555555555548,37.55111111111109,0)" xlink:href="#G"/><use transform="matrix(0.015555555555555548,0,0,0.015555555555555548,43.53999999999998,0)" xlink:href="#H"/><use transform="matrix(0.015555555555555548,0,0,0.015555555555555548,52.484444444444414,0)" xlink:href="#I"/><use transform="matrix(0.015555555555555548,0,0,0.015555555555555548,60.47999999999996,0)" xlink:href="#H"/><use transform="matrix(0.015555555555555548,0,0,0.015555555555555548,69.48666666666662,0)" xlink:href="#J"/><use transform="matrix(0.015555555555555548,0,0,0.015555555555555548,79.2555555555555,0)" xlink:href="#B"/><use transform="matrix(0.015555555555555548,0,0,0.015555555555555548,85.24444444444438,0)" xlink:href="#K"/></g><path fill="#333" d="M39-378c0-175 271-194 382-101l-50 79c-41-25-82-38-123-38-83 0-118 83-42 107 98 31 223 49 223 175C429 33 141 56 23-45l54-78c39 24 75 33 132 40 84 10 127-92 48-118-99-33-218-48-218-177" id="L"/><g id="d"><use transform="matrix(0.015555555555555548,0,0,0.015555555555555548,0,0)" xlink:href="#L"/><use transform="matrix(0.015555555555555548,0,0,0.015555555555555548,7.171111111111108,0)" xlink:href="#H"/><use transform="matrix(0.015555555555555548,0,0,0.015555555555555548,16.099999999999994,0)" xlink:href="#B"/></g><path fill="#333" d="M203-708V0H78v-708h125" id="M"/><path fill="#333" d="M314-534c172 0 271 101 271 272C585-92 485 14 314 14 144 14 44-93 44-262c0-171 98-272 270-272zm0 100c-102 0-140 71-140 172 0 102 39 177 141 177s142-75 142-177-40-172-143-172" id="N"/><path fill="#333" d="M203 0H78v-520h125V0zm-62-611c-51 0-77-26-77-71 0-48 26-72 77-72s77 26 77 72c0 45-28 71-77 71" id="O"/><g id="e"><use transform="matrix(0.015555555555555548,0,0,0.015555555555555548,0,0)" xlink:href="#M"/><use transform="matrix(0.015555555555555548,0,0,0.015555555555555548,4.386666666666665,0)" xlink:href="#N"/><use transform="matrix(0.015555555555555548,0,0,0.015555555555555548,14.18666666666666,0)" xlink:href="#E"/><use transform="matrix(0.015555555555555548,0,0,0.015555555555555548,22.135555555555545,0)" xlink:href="#D"/><use transform="matrix(0.015555555555555548,0,0,0.015555555555555548,30.908888888888875,0)" xlink:href="#B"/><use transform="matrix(0.015555555555555548,0,0,0.015555555555555548,36.89777777777776,0)" xlink:href="#O"/><use transform="matrix(0.015555555555555548,0,0,0.015555555555555548,41.284444444444425,0)" xlink:href="#N"/><use transform="matrix(0.015555555555555548,0,0,0.015555555555555548,51.08444444444442,0)" xlink:href="#J"/></g><path fill="#333" d="M328 1C218 40 105-8 105-130v-314H15v-55l89-10v-125l86-30v155h135v65H190v307c-6 76 60 95 125 75" id="P"/><path fill="#333" d="M172 0H87v-509h85V0zm-42-631c-37 0-55-19-56-52 0-36 19-54 56-54s55 18 55 54c-1 33-19 52-55 52" id="Q"/><path fill="#333" d="M315-453c-88 0-144 74-144 161V0H86c-3-170 7-349-7-509h81c5 17 3 46 9 72 30-48 90-86 168-86 89 0 140 43 168 103 32-60 90-104 179-103 122 1 187 78 187 197V0h-85v-314c-1-78-37-142-120-139-97 3-146 77-146 174V0h-85v-316c-1-77-39-137-120-137" id="R"/><path fill="#333" d="M288-523c162-3 241 129 226 299H136c6 100 61 171 167 170 70-1 110-20 156-50l38 55c-54 38-112 62-199 63C141 16 48-99 50-257c3-159 80-263 238-266zm145 233c-2-96-49-168-146-168-96 0-149 75-152 168h298" id="S"/><g id="f"><use transform="matrix(0.019999999999999997,0,0,0.019999999999999997,0,0)" xlink:href="#P"/><use transform="matrix(0.019999999999999997,0,0,0.019999999999999997,7.139999999999999,0)" xlink:href="#Q"/><use transform="matrix(0.019999999999999997,0,0,0.019999999999999997,12.299999999999999,0)" xlink:href="#R"/><use transform="matrix(0.019999999999999997,0,0,0.019999999999999997,31.299999999999994,0)" xlink:href="#S"/></g><path fill="#333" d="M159 48h129v66H78v-925h210v67H159V48" id="T"/><path fill="#333" d="M41-381c-4-162 252-177 353-88l-38 53c-39-27-82-41-128-41-98 0-143 107-54 139 97 35 229 46 229 174C403 35 133 53 25-45l39-53c42 28 78 41 142 45 80 4 134-58 99-129-26-31-59-35-113-51-89-25-148-50-151-148" id="U"/><path fill="#333" d="M209-744H80v-67h210v925H80V48h129v-792" id="V"/><g id="g"><use transform="matrix(0.019999999999999997,0,0,0.019999999999999997,0,0)" xlink:href="#T"/><use transform="matrix(0.019999999999999997,0,0,0.019999999999999997,7.3599999999999985,0)" xlink:href="#U"/><use transform="matrix(0.019999999999999997,0,0,0.019999999999999997,16.199999999999996,0)" xlink:href="#V"/></g><path fill="#333" d="M304 17C111 17 43-144 43-354s68-371 261-371c194 0 263 160 263 371S498 17 304 17zm1-75c145 0 173-132 173-296 0-165-28-296-173-296-147 0-174 130-174 296 0 165 28 296 174 296" id="W"/><use transform="matrix(0.017777777777777778,0,0,0.017777777777777778,0,0)" xlink:href="#W" id="h"/><path fill="#333" d="M539-74V0H105v-73h192v-544l-191 99-35-64 236-126h78v634h154" id="X"/><g id="i"><use transform="matrix(0.017777777777777778,0,0,0.017777777777777778,0,0)" xlink:href="#X"/><use transform="matrix(0.017777777777777778,0,0,0.017777777777777778,10.844444444444445,0)" xlink:href="#W"/></g><path fill="#333" d="M289-725c133 0 224 61 229 187 4 99-58 146-131 167 87 11 156 67 153 171C535-53 431 17 277 17 157 17 93-19 29-81l47-52c58 50 103 75 201 76 100 1 173-50 173-146 0-134-124-136-259-130v-72c125 8 242-3 240-123-1-84-61-125-150-124-85 1-132 26-185 66l-46-50c65-55 129-89 239-89" id="Y"/><g id="j"><use transform="matrix(0.017777777777777778,0,0,0.017777777777777778,0,0)" xlink:href="#Y"/><use transform="matrix(0.017777777777777778,0,0,0.017777777777777778,10.844444444444445,0)" xlink:href="#W"/></g><path fill="#333" d="M80-708h149c118 176 232 354 352 528l-3-528h121V0H550C432-176 318-355 198-529l4 529H80v-708" id="Z"/><path fill="#333" d="M660 0H524c-41-127-77-259-120-384L289 0H154L9-520h132c30 126 55 257 88 381l114-381h130c40 126 75 257 117 381l88-381h127" id="aa"/><g id="k"><use transform="matrix(0.015555555555555548,0,0,0.015555555555555548,0,0)" xlink:href="#Z"/><use transform="matrix(0.015555555555555548,0,0,0.015555555555555548,12.117777777777771,0)" xlink:href="#H"/><use transform="matrix(0.015555555555555548,0,0,0.015555555555555548,21.124444444444435,0)" xlink:href="#aa"/></g><path fill="#333" d="M362-301V0H231v-303L-18-708h150c57 100 111 203 171 301l167-301h145" id="ab"/><g id="l"><use transform="matrix(0.015555555555555548,0,0,0.015555555555555548,0,0)" xlink:href="#ab"/><use transform="matrix(0.015555555555555548,0,0,0.015555555555555548,8.057777777777774,0)" xlink:href="#N"/><use transform="matrix(0.015555555555555548,0,0,0.015555555555555548,17.85777777777777,0)" xlink:href="#C"/><use transform="matrix(0.015555555555555548,0,0,0.015555555555555548,23.955555555555545,0)" xlink:href="#F"/></g><path fill="#333" d="M567-226C567-63 453 19 286 19 163 19 92-21 27-84l72-78c57 46 94 69 187 71 85 1 148-49 148-132 0-135-160-147-259-92H89v-393h435v108H213v175c39-15 82-23 131-23 136 0 223 84 223 222" id="ac"/><path fill="#333" d="M304 19C107 19 36-138 36-354s71-373 268-373c198 0 270 156 270 373S502 19 304 19zm109-173c34-72 34-326-1-399-40-82-174-82-214 0-35 73-36 327-1 399 38 80 178 80 216 0" id="ad"/><g id="m"><use transform="matrix(0.015555555555555548,0,0,0.015555555555555548,0,0)" xlink:href="#ac"/><use transform="matrix(0.015555555555555548,0,0,0.015555555555555548,9.488888888888884,0)" xlink:href="#ad"/></g><path fill="#333" d="M44-257c2-159 83-277 241-277 59 0 108 17 147 52v-226h125c4 237-9 482 8 708H449c-6-26-5-51-10-65-38 51-88 79-175 79C113 16 42-104 44-257zM298-85c79 1 134-62 134-142v-152c-34-36-77-54-128-54-90 1-130 79-130 176S212-88 298-85" id="ae"/><g id="n"><use transform="matrix(0.015555555555555548,0,0,0.015555555555555548,0,0)" xlink:href="#L"/><use transform="matrix(0.015555555555555548,0,0,0.015555555555555548,7.171111111111108,0)" xlink:href="#H"/><use transform="matrix(0.015555555555555548,0,0,0.015555555555555548,16.17777777777777,0)" xlink:href="#E"/><use transform="matrix(0.015555555555555548,0,0,0.015555555555555548,23.939999999999987,0)" xlink:href="#N"/><use transform="matrix(0.015555555555555548,0,0,0.015555555555555548,33.73999999999998,0)" xlink:href="#J"/><use transform="matrix(0.015555555555555548,0,0,0.015555555555555548,43.586666666666645,0)" xlink:href="#ae"/><use transform="matrix(0.015555555555555548,0,0,0.015555555555555548,53.46444444444442,0)" xlink:href="#L"/></g><path fill="#333" d="M555-225C552-67 449 17 287 17 168 17 104-19 40-81l50-52c58 49 100 73 196 75 107 2 179-61 179-165 0-95-61-149-156-148-65 0-106 12-151 35H98v-372h419v74H182v222c47-20 97-30 150-30 132-2 226 86 223 217" id="af"/><g id="o"><use transform="matrix(0.017777777777777778,0,0,0.017777777777777778,0,0)" xlink:href="#af"/><use transform="matrix(0.017777777777777778,0,0,0.017777777777777778,10.844444444444445,0)" xlink:href="#W"/></g><path fill="#333" d="M578-638C417-468 304-277 276 0H174c42-266 143-462 297-633H36v-75h542v70" id="ag"/><g id="p"><use transform="matrix(0.017777777777777778,0,0,0.017777777777777778,0,0)" xlink:href="#ag"/><use transform="matrix(0.017777777777777778,0,0,0.017777777777777778,10.844444444444445,0)" xlink:href="#W"/></g><path fill="#333" d="M304-725c186 0 261 132 260 327-2 272-160 410-435 412v-73c199 2 330-96 345-273-56 56-124 84-203 84-140 0-229-84-229-227 0-158 102-250 262-250zm-13 409c86-1 144-42 184-94-3-148-35-240-172-243-109-2-172 68-172 175 0 101 61 162 160 162" id="ah"/><g id="q"><use transform="matrix(0.017777777777777778,0,0,0.017777777777777778,0,0)" xlink:href="#ah"/><use transform="matrix(0.017777777777777778,0,0,0.017777777777777778,10.844444444444445,0)" xlink:href="#W"/></g><path fill="#333" d="M410-371c100 40 159 69 159 189C569-43 451 17 303 17 156 17 41-43 41-181c0-116 64-158 157-198-76-36-123-67-123-165 0-121 106-181 231-181 126 0 230 56 230 178 0 95-54 134-126 176zM306-659c-76 0-146 44-144 118 2 99 94 113 177 146 63-39 106-64 109-146 3-74-65-118-142-118zm-1 606c124 0 215-89 159-198-30-59-120-72-195-102-83 31-137 67-137 164 0 94 73 136 173 136" id="ai"/><g id="r"><use transform="matrix(0.017777777777777778,0,0,0.017777777777777778,0,0)" xlink:href="#ai"/><use transform="matrix(0.017777777777777778,0,0,0.017777777777777778,10.844444444444445,0)" xlink:href="#W"/></g><g id="s"><use transform="matrix(0.017777777777777778,0,0,0.017777777777777778,0,0)" xlink:href="#u"/><use transform="matrix(0.017777777777777778,0,0,0.017777777777777778,13.848888888888888,0)" xlink:href="#y"/></g><path fill="#fff" d="M211-109h306V0H80v-708h131v599" id="aj"/><path fill="#fff" d="M44-261c0-170 96-273 266-273 65 0 123 19 174 56l-47 87c-40-26-82-39-126-39-98-1-141 69-141 169 0 97 44 171 139 170 41 0 84-13 129-40l45 89C436-9 374 14 299 14 127 14 44-98 44-261" id="ak"/><path fill="#fff" d="M206 14C110 14 37-46 38-146c2-168 152-185 331-181 25-144-173-124-258-70l-42-83c50-30 124-54 200-54 156 0 223 66 225 217 2 121-6 199 9 317H388c-5-27-8-47-9-59h-3c-39 49-83 73-170 73zm36-98c87-3 138-59 128-159-104-1-200-4-202 88-1 45 29 73 74 71" id="al"/><path fill="#fff" d="M266 14c-103 1-166-60-165-163v-271H15v-80l85-15v-123l126-44v167h129v95H226v259c-6 69 55 85 113 68l18 92c-25 10-56 15-91 15" id="am"/><path fill="#fff" d="M203 0H78v-520h125V0zm-62-611c-51 0-77-26-77-71 0-48 26-72 77-72s77 26 77 72c0 45-28 71-77 71" id="an"/><path fill="#fff" d="M330-430c-79 0-127 62-127 141V0H78c-4-180 9-350-9-520h120c5 20 4 44 10 60 33-43 94-75 172-74 122 1 190 74 190 190V0H436v-317c-1-69-32-113-106-113" id="ao"/><g id="t"><use transform="matrix(0.017777777777777778,0,0,0.017777777777777778,0,0)" xlink:href="#aj"/><use transform="matrix(0.017777777777777778,0,0,0.017777777777777778,9.066666666666666,0)" xlink:href="#y"/><use transform="matrix(0.017777777777777778,0,0,0.017777777777777778,20.266666666666666,0)" xlink:href="#ak"/><use transform="matrix(0.017777777777777778,0,0,0.017777777777777778,29.351111111111113,0)" xlink:href="#al"/><use transform="matrix(0.017777777777777778,0,0,0.017777777777777778,39.37777777777778,0)" xlink:href="#am"/><use transform="matrix(0.017777777777777778,0,0,0.017777777777777778,46.22222222222222,0)" xlink:href="#an"/><use transform="matrix(0.017777777777777778,0,0,0.017777777777777778,51.23555555555556,0)" xlink:href="#y"/><use transform="matrix(0.017777777777777778,0,0,0.017777777777777778,62.43555555555555,0)" xlink:href="#ao"/></g></defs></g></svg>